<svg width="1032" height="492" viewBox="0 0 1032 492" fill="none" xmlns="http://www.w3.org/2000/svg"><path d="M102.883 304.464c55.431 10.713 100.157-12.437 109.925-62.978l.126-.652c9.579-49.562-23.181-79.571-64.265-87.512-15.325-2.962-26.716-1.781-38.095 1.094l8.637-34.185 102.71 19.852 10.084-52.17L79.406 58.417l-28.83 114.167 33.4 28.442c12.02-4.442 24.705-7.064 38.725-4.354 19.89 3.844 31.695 16.273 28.48 32.902l-.126.652c-3.151 16.304-17.558 24.343-38.426 20.31-19.564-3.782-35.407-16.315-50.642-35.495l-44.386 35.393c19.518 26.773 44.85 46.214 85.282 54.029zm202.448 39.128c65.213 12.605 116.433-33.645 128.911-98.206l.126-.652c12.479-64.561-17.618-125.85-82.505-138.391-64.887-12.542-116.433 33.645-128.911 98.206l-.126.652c-12.479 64.561 17.618 125.85 82.505 138.391zm11.492-55.957c-25.433-4.916-37.347-34.278-30.288-70.797l.126-.652c7.058-36.52 28.666-59.065 53.773-54.212 25.433 4.915 37.284 34.604 30.225 71.123l-.126.652c-6.995 36.194-28.277 58.802-53.71 53.886zm109.801 66.535l110.194 21.298 6.187-32.011-72.945-14.098 4.162-21.535 65.185 12.599 5.737-29.682-65.185-12.599 4.012-20.759 71.975 13.912 6.15-31.817-109.224-21.111-26.248 135.803zm190.212 39.38c38.607 7.462 67.383-7.102 75.82-50.752l14.548-75.274-38.024-7.349-14.774 76.437c-3.675 19.013-15.294 26.024-30.62 23.062-15.132-2.924-23.226-14.149-19.439-33.743l14.586-75.468-38.025-7.349-14.736 76.243c-8.212 42.487 12.252 66.769 50.664 74.193zm86.395 14.082l37.636 7.274 7.95-41.129 16.684 3.225 19.405 46.416 43.263 8.362-23.249-53.599c18.265-3.916 31.986-15.553 36.035-36.505l.075-.388c2.588-13.387.501-24.456-5.916-33.948-7.356-10.88-20.662-19.087-41.42-23.099l-64.216-12.412-26.247 135.803zm51.285-63.343l6.337-32.787 24.833 4.8c12.416 2.4 19.32 9.369 17.22 20.233l-.075.388c-1.912 9.894-10.678 14.64-23.288 12.203l-25.027-4.837z" fill="#EE3124"/></svg>