<svg width="1697" height="731" viewBox="0 0 1697 731" fill="none" xmlns="http://www.w3.org/2000/svg"><g opacity=".5"><path d="M1392.36 0c-39.56 0-59.33 3.49-103.53 3.49-53.52 0-81.43-3.49-118.66-3.49-4.65 0-4.65 13.96 0 13.96 81.43 0 102.37 27.918 77.94 88.408l-208.22 521.143-147.739-318.735 79.102-198.919c27.919-72.122 66.307-91.898 115.167-91.898 3.49 0 3.49-13.959 0-13.959-38.39 0-58.17 3.49-101.208 3.49C944.498 3.49 932.865 0 909.6 0c-4.653 0-4.653 13.96 0 13.96 52.347 0 60.49 24.428 36.061 86.081l-68.632 173.327-84.919-181.47c-31.408-68.633-30.245-77.939 18.612-77.939 4.653 0 4.653-13.959 0-13.959-24.428 0-51.183 3.49-101.204 3.49C674.62 3.49 646.702 0 616.457 0c-4.653 0-4.653 13.96 0 13.96 45.367 0 69.796 24.428 95.388 82.591l123.306 267.552-104.694 259.408L482.681 91.898c-27.919-62.816-3.49-77.939 57-77.939 4.653 0 4.653-13.959 0-13.959-34.898 0-73.286 3.49-138.429 3.49-37.224 0-65.143-3.49-96.551-3.49-4.653 0-4.653 13.96 0 13.96 48.857 0 70.959 20.938 98.878 82.591L693.232 725.88c3.49 5.816 23.266 5.816 25.592 0l131.449-329.205L1001.5 725.879c3.49 5.816 23.26 5.816 25.59 0l247.78-620.022c29.08-69.796 68.63-91.898 117.49-91.898 4.65 0 4.65-13.959 0-13.959z" fill="#FFF1F7"/><path d="M348.743 246.53c-12.639 0-18.958 1.115-33.084 1.115-17.1 0-26.022-1.115-37.917-1.115-1.487 0-1.487 4.461 0 4.461 26.021 0 32.713 8.921 24.906 28.252l-66.54 166.536-47.21-101.855 25.278-63.566c8.921-23.048 21.188-29.367 36.801-29.367 1.115 0 1.115-4.461 0-4.461-12.267 0-18.586 1.115-32.341 1.115-13.01 0-16.728-1.115-24.162-1.115-1.487 0-1.487 4.461 0 4.461 16.728 0 19.33 7.806 11.523 27.508l-21.932 55.388-27.136-57.99c-10.037-21.932-9.665-24.906 5.947-24.906 1.487 0 1.487-4.461 0-4.461-7.806 0-16.356 1.115-32.34 1.115-11.152 0-20.074-1.115-29.739-1.115-1.487 0-1.487 4.461 0 4.461 14.498 0 22.304 7.806 30.482 26.393l39.404 85.499-33.456 82.896-79.18-169.882c-8.921-20.074-1.115-24.906 18.216-24.906 1.486 0 1.486-4.461 0-4.461-11.153 0-23.42 1.115-44.237 1.115-11.895 0-20.817-1.115-30.854-1.115-1.487 0-1.487 4.461 0 4.461 15.613 0 22.676 6.691 31.598 26.393l92.561 201.108c1.116 1.858 7.435 1.858 8.178 0l42.006-105.201 48.326 105.201c1.115 1.858 7.434 1.858 8.178 0l79.179-198.134c9.293-22.304 21.932-29.367 37.545-29.367 1.487 0 1.487-4.461 0-4.461zm175.333 176.945c-5.204 29.367-21.932 47.582-45.723 47.582h-29.738c-24.163 0-28.996-4.089-28.996-23.791v-85.499h44.237c24.906 0 34.571 8.922 34.571 30.483 0 1.115 4.461 1.115 4.461 0 0-12.639-.744-22.676-.744-34.2 0-9.293.372-15.241.372-30.11 0-1.115-4.461-1.115-4.461 0 0 18.586-9.293 26.021-33.084 26.021h-45.352v-75.462c0-19.702 5.205-24.163 30.111-24.163h22.675c23.42 0 39.033 15.242 40.519 41.635.372 1.487 4.089 1.115 4.089-.372l-.743-45.723c0-2.231-.743-3.346-3.346-3.346H363.488c-1.116 0-1.116 4.461 0 4.461 27.136 0 31.969 4.461 31.969 25.649v172.113c0 21.561-4.833 25.65-31.969 25.65-1.116 0-1.116 4.46 0 4.46h155.756c4.461 0 5.948-1.486 5.948-5.575 0-15.613 1.487-36.059 3.345-49.069 0-1.487-4.089-2.231-4.461-.744zm199.662 0c-5.204 29.367-21.932 47.582-45.723 47.582h-29.739c-24.163 0-28.995-4.089-28.995-23.791v-85.499h44.236c24.906 0 34.571 8.922 34.571 30.483 0 1.115 4.461 1.115 4.461 0 0-12.639-.743-22.676-.743-34.2 0-9.293.371-15.241.371-30.11 0-1.115-4.46-1.115-4.46 0 0 18.586-9.294 26.021-33.085 26.021h-45.351v-75.462c0-19.702 5.204-24.163 30.11-24.163h22.676c23.419 0 39.032 15.242 40.519 41.635.372 1.487 4.089 1.115 4.089-.372l-.743-45.723c0-2.231-.744-3.346-3.346-3.346H563.149c-1.115 0-1.115 4.461 0 4.461 27.137 0 31.969 4.461 31.969 25.649v172.113c0 21.561-4.832 25.65-31.969 25.65-1.115 0-1.115 4.46 0 4.46h155.756c4.461 0 5.948-1.486 5.948-5.575 0-15.613 1.487-36.059 3.346-49.069 0-1.487-4.089-2.231-4.461-.744zm261.369 50.928c-23.047 0-30.11 3.345-86.242-69.514l-53.53-68.399 58.734-57.619c21.189-20.817 46.095-27.88 64.31-27.88 1.487 0 1.487-4.461 0-4.461-10.408 0-20.073 1.115-39.404 1.115-20.445 0-30.853-1.115-43.121-1.115-1.115 0-1.115 4.461 0 4.461 26.022 0 28.252 6.691 9.665 25.649l-79.551 79.18v-78.436c0-21.189 4.833-26.393 31.598-26.393 1.487 0 1.487-4.461 0-4.461-11.524 0-26.393 1.115-43.865 1.115-16.356 0-31.225-1.115-43.493-1.115-1.115 0-1.115 4.461 0 4.461 27.137 0 31.598 4.461 31.598 25.649v172.113c0 21.561-4.833 25.65-31.969 25.65-1.116 0-1.116 4.46 0 4.46 11.895 0 27.508-.743 43.864-.743 17.472 0 31.969.743 43.865.743 1.487 0 1.487-4.46 0-4.46-27.137 0-31.598-4.089-31.598-25.65v-83.64l12.268-11.895 56.875 71.744c46.467 58.734 32.341 53.901 58.362 53.901h41.634c1.487 0 1.487-4.46 0-4.46zm180.063-50.928c-5.2 29.367-21.93 47.582-45.72 47.582h-29.74c-24.16 0-29-4.089-29-23.791v-85.499h44.24c24.91 0 34.57 8.922 34.57 30.483 0 1.115 4.46 1.115 4.46 0 0-12.639-.74-22.676-.74-34.2 0-9.293.37-15.241.37-30.11 0-1.115-4.46-1.115-4.46 0 0 18.586-9.29 26.021-33.08 26.021h-45.36v-75.462c0-19.702 5.21-24.163 30.11-24.163h22.68c23.42 0 39.03 15.242 40.52 41.635.37 1.487 4.09 1.115 4.09-.372l-.75-45.723c0-2.231-.74-3.346-3.34-3.346h-149.44c-1.11 0-1.11 4.461 0 4.461 27.14 0 31.97 4.461 31.97 25.649v172.113c0 21.561-4.83 25.65-31.97 25.65-1.11 0-1.11 4.46 0 4.46h155.76c4.46 0 5.95-1.486 5.95-5.575 0-15.613 1.48-36.059 3.34-49.069 0-1.487-4.09-2.231-4.46-.744zm284.79-176.945c-9.67 0-21.93 1.115-33.83 1.115-12.64 0-22.67-1.115-32.71-1.115-1.12 0-1.12 4.461 0 4.461 20.44 0 28.25 10.78 28.25 36.43V441.69l-143.12-175.83c-11.52-14.126-11.15-19.33-17.47-19.33-4.09 0-12.26.744-21.56.744-7.43 0-17.47-.744-26.02-.744-1.49 0-1.49 4.461 0 4.461 8.92 0 18.22 2.974 29.37 13.382v173.972c0 25.649-7.81 36.058-29.37 36.058-1.11 0-1.11 4.46 0 4.46 10.04 0 21.93-.743 34.2-.743 12.64 0 23.05.743 32.71.743 1.49 0 1.49-4.46 0-4.46-20.44 0-28.99-10.409-28.99-36.058v-165.05c1.11 1.115 2.23 2.23 3.34 3.717l171 207.056c1.12.743 4.46.371 4.46-.744V287.421c0-25.65 8.92-36.43 29.74-36.43 1.49 0 1.49-4.461 0-4.461zm121.02 233.82c68.4 0 126.02-47.21 126.02-121.556 0-63.939-52.04-113.007-131.22-113.007-13.38 0-34.2 1.858-50.56 1.858-16.35 0-31.22-1.115-43.49-1.115-1.12 0-1.12 4.461 0 4.461 27.14 0 31.6 4.461 31.6 25.649v172.113c0 21.561-4.84 25.65-31.97 25.65-1.12 0-1.12 4.46 0 4.46 11.89 0 27.51-.743 43.86-.743 17.85 0 41.64 2.23 55.76 2.23zm-3.71-5.576c-32.72 0-39.78-9.293-39.78-30.11v-167.28c0-22.676 11.9-26.021 41.63-26.021 60.97 0 99.63 50.927 99.63 115.609 0 69.886-42.38 107.802-101.48 107.802z" fill="#463C3D" fill-opacity=".1"/></g></svg>