<svg width="591" height="254" viewBox="0 0 591 254" fill="none" xmlns="http://www.w3.org/2000/svg"><path d="M484.901 0c-13.775 0-20.662 1.214-36.057 1.214C430.207 1.214 420.484 0 407.52 0c-1.621 0-1.621 4.855 0 4.855 28.359 0 35.652 9.711 27.144 30.751l-72.519 181.27-51.452-110.866 27.549-69.19c9.723-25.086 23.093-31.965 40.108-31.965 1.216 0 1.216-4.855 0-4.855-13.369 0-20.257 1.214-35.247 1.214C328.924 1.214 324.872 0 316.77 0c-1.621 0-1.621 4.855 0 4.855 18.231 0 21.067 8.497 12.559 29.942l-23.903 60.289-29.575-63.121c-10.939-23.873-10.533-27.11 6.482-27.11 1.621 0 1.621-4.855 0-4.855-8.508 0-17.826 1.214-35.247 1.214-12.154 0-21.877-1.214-32.41-1.214-1.621 0-1.621 4.855 0 4.855 15.8 0 24.308 8.497 33.221 28.728l42.944 93.063-36.462 90.23-86.294-184.911c-9.723-21.85-1.215-27.11 19.852-27.11 1.62 0 1.62-4.855 0-4.855-12.154 0-25.524 1.214-48.211 1.214C126.761 1.214 117.038 0 106.099 0c-1.62 0-1.62 4.855 0 4.855 17.016 0 24.714 7.284 34.437 28.728l100.879 218.9c1.215 2.023 8.102 2.023 8.913 0l45.78-114.508 52.667 114.508c1.216 2.023 8.103 2.023 8.913 0L443.982 36.82c10.128-24.277 23.903-31.965 40.919-31.965 1.62 0 1.62-4.855 0-4.855z" fill="#fff"/><path d="M121.438 85.75c-4.402 0-6.603.388-11.522.388-5.956 0-9.063-.387-13.206-.387-.518 0-.518 1.551 0 1.551 9.063 0 11.393 3.103 8.674 9.827L82.21 155.055l-16.442-35.428 8.804-22.11c3.107-8.017 7.38-10.215 12.817-10.215.388 0 .388-1.551 0-1.551-4.273 0-6.474.387-11.264.387-4.53 0-5.826-.387-8.415-.387-.518 0-.518 1.551 0 1.551 5.826 0 6.732 2.715 4.014 9.568l-7.639 19.266-9.45-20.17c-3.496-7.63-3.367-8.664 2.07-8.664.519 0 .519-1.551 0-1.551-2.718 0-5.696.387-11.263.387-3.884 0-6.99-.387-10.357-.387-.518 0-.518 1.551 0 1.551 5.05 0 7.768 2.715 10.616 9.18l13.723 29.74-11.651 28.833-27.577-59.09c-3.107-6.982-.388-8.663 6.344-8.663.518 0 .518-1.551 0-1.551-3.884 0-8.156.387-15.406.387-4.143 0-7.25-.387-10.746-.387-.517 0-.517 1.551 0 1.551 5.438 0 7.898 2.328 11.005 9.18l32.237 69.952c.388.646 2.589.646 2.848 0l14.63-36.592 16.83 36.592c.388.646 2.59.646 2.848 0l27.576-68.917c3.237-7.758 7.638-10.215 13.076-10.215.518 0 .518-1.551 0-1.551z" fill="url(#paint0_linear_768_974)"/><path d="M182.502 147.297c-1.813 10.215-7.638 16.551-15.924 16.551h-10.357c-8.416 0-10.099-1.422-10.099-8.275v-29.739h15.407c8.674 0 12.04 3.103 12.04 10.602 0 .388 1.553.388 1.553 0 0-4.396-.258-7.887-.258-11.895 0-3.233.129-5.302.129-10.474 0-.388-1.554-.388-1.554 0 0 6.465-3.236 9.051-11.522 9.051h-15.795V96.87c0-6.853 1.813-8.404 10.487-8.404h7.897c8.157 0 13.594 5.301 14.112 14.481.129.518 1.424.388 1.424-.129l-.259-15.904c0-.776-.259-1.163-1.165-1.163h-52.045c-.388 0-.388 1.551 0 1.551 9.451 0 11.134 1.552 11.134 8.922v59.866c0 7.499-1.683 8.922-11.134 8.922-.388 0-.388 1.551 0 1.551h54.246c1.553 0 2.071-.517 2.071-1.939 0-5.431.518-12.542 1.166-17.068 0-.517-1.425-.776-1.554-.259z" fill="url(#paint1_linear_768_974)"/><path d="M252.039 147.297c-1.813 10.215-7.639 16.551-15.924 16.551h-10.358c-8.415 0-10.098-1.422-10.098-8.275v-29.739h15.406c8.675 0 12.041 3.103 12.041 10.602 0 .388 1.553.388 1.553 0 0-4.396-.259-7.887-.259-11.895 0-3.233.13-5.302.13-10.474 0-.388-1.554-.388-1.554 0 0 6.465-3.236 9.051-11.522 9.051h-15.795V96.87c0-6.853 1.813-8.404 10.487-8.404h7.897c8.156 0 13.594 5.301 14.112 14.481.129.518 1.424.388 1.424-.129l-.259-15.904c0-.776-.259-1.163-1.165-1.163H196.11c-.388 0-.388 1.551 0 1.551 9.451 0 11.134 1.552 11.134 8.922v59.866c0 7.499-1.683 8.922-11.134 8.922-.388 0-.388 1.551 0 1.551h54.246c1.553 0 2.071-.517 2.071-1.939 0-5.431.518-12.542 1.165-17.068 0-.517-1.424-.776-1.553-.259z" fill="url(#paint2_linear_768_974)"/><path d="M343.067 165.012c-8.027 0-10.487 1.163-30.036-24.18l-18.643-23.791L314.843 97c7.38-7.241 16.054-9.698 22.398-9.698.518 0 .518-1.551 0-1.551-3.625 0-6.991.387-13.724.387-7.12 0-10.745-.387-15.017-.387-.389 0-.389 1.551 0 1.551 9.062 0 9.839 2.328 3.366 8.922l-27.706 27.541V96.483c0-7.37 1.683-9.18 11.005-9.18.518 0 .518-1.552 0-1.552-4.014 0-9.192.387-15.277.387-5.697 0-10.875-.387-15.148-.387-.388 0-.388 1.551 0 1.551 9.451 0 11.005 1.552 11.005 8.922v59.866c0 7.499-1.683 8.922-11.134 8.922-.388 0-.388 1.551 0 1.551 4.143 0 9.58-.258 15.277-.258 6.085 0 11.134.258 15.277.258.518 0 .518-1.551 0-1.551-9.451 0-11.005-1.423-11.005-8.922v-29.093l4.272-4.137 19.809 24.955c16.183 20.429 11.263 18.748 20.326 18.748h14.5c.518 0 .518-1.551 0-1.551z" fill="url(#paint3_linear_768_974)"/><path d="M405.778 147.297c-1.812 10.215-7.638 16.551-15.924 16.551h-10.357c-8.415 0-10.098-1.422-10.098-8.275v-29.739h15.406c8.674 0 12.04 3.103 12.04 10.602 0 .388 1.554.388 1.554 0 0-4.396-.259-7.887-.259-11.895 0-3.233.129-5.302.129-10.474 0-.388-1.553-.388-1.553 0 0 6.465-3.237 9.051-11.523 9.051h-15.794V96.87c0-6.853 1.812-8.404 10.486-8.404h7.898c8.156 0 13.593 5.301 14.111 14.481.13.518 1.424.388 1.424-.129l-.259-15.904c0-.776-.258-1.163-1.165-1.163h-52.045c-.388 0-.388 1.551 0 1.551 9.451 0 11.134 1.552 11.134 8.922v59.866c0 7.499-1.683 8.922-11.134 8.922-.388 0-.388 1.551 0 1.551h54.246c1.554 0 2.072-.517 2.072-1.939 0-5.431.517-12.542 1.165-17.068 0-.517-1.424-.776-1.554-.259z" fill="url(#paint4_linear_768_974)"/><path d="M504.962 85.75c-3.366 0-7.638.388-11.781.388-4.402 0-7.897-.387-11.393-.387-.388 0-.388 1.551 0 1.551 7.121 0 9.84 3.75 9.84 12.672v53.659l-49.844-61.159c-4.014-4.913-3.884-6.723-6.085-6.723-1.424 0-4.273.258-7.509.258-2.59 0-6.085-.258-9.063-.258-.518 0-.518 1.551 0 1.551 3.107 0 6.344 1.035 10.228 4.655v60.512c0 8.922-2.719 12.543-10.228 12.543-.388 0-.388 1.551 0 1.551 3.496 0 7.639-.258 11.911-.258 4.402 0 8.027.258 11.393.258.518 0 .518-1.551 0-1.551-7.121 0-10.098-3.621-10.098-12.543V95.06c.388.388.776.776 1.165 1.293l59.554 72.02c.388.259 1.553.13 1.553-.258V99.974c0-8.922 3.107-12.672 10.357-12.672.518 0 .518-1.551 0-1.551z" fill="url(#paint5_linear_768_974)"/><path d="M547.111 167.08c23.822 0 43.889-16.421 43.889-42.281 0-22.239-18.125-39.307-45.701-39.307-4.661 0-11.911.646-17.607.646-5.697 0-10.875-.387-15.148-.387-.388 0-.388 1.551 0 1.551 9.451 0 11.005 1.552 11.005 8.922v59.866c0 7.499-1.683 8.922-11.134 8.922-.389 0-.389 1.551 0 1.551 4.143 0 9.58-.258 15.277-.258 6.214 0 14.5.775 19.419.775zm-1.294-1.939c-11.393 0-13.853-3.233-13.853-10.473V96.482c0-7.887 4.143-9.05 14.5-9.05 21.232 0 34.697 17.714 34.697 40.212 0 24.308-14.759 37.497-35.344 37.497z" fill="url(#paint6_linear_768_974)"/><defs><linearGradient id="paint0_linear_768_974" x1="0" y1="122.5" x2="596" y2="122.5" gradientUnits="userSpaceOnUse"><stop stop-color="#DCDCDC"/><stop offset=".069" stop-color="#737475"/><stop offset=".159" stop-color="#959595"/><stop offset=".239" stop-color="#7C7E7F"/><stop offset=".284" stop-color="#A7A9AB"/><stop offset=".467" stop-color="#C7C7C7"/><stop offset=".538" stop-color="#706E70"/><stop offset=".611" stop-color="#777578"/><stop offset=".724" stop-color="#777778"/><stop offset=".832" stop-color="#C7C7C9"/><stop offset="1" stop-color="#868686"/></linearGradient><linearGradient id="paint1_linear_768_974" x1="0" y1="122.5" x2="596" y2="122.5" gradientUnits="userSpaceOnUse"><stop stop-color="#DCDCDC"/><stop offset=".069" stop-color="#737475"/><stop offset=".159" stop-color="#959595"/><stop offset=".239" stop-color="#7C7E7F"/><stop offset=".284" stop-color="#A7A9AB"/><stop offset=".467" stop-color="#C7C7C7"/><stop offset=".538" stop-color="#706E70"/><stop offset=".611" stop-color="#777578"/><stop offset=".724" stop-color="#777778"/><stop offset=".832" stop-color="#C7C7C9"/><stop offset="1" stop-color="#868686"/></linearGradient><linearGradient id="paint2_linear_768_974" x1="0" y1="122.5" x2="596" y2="122.5" gradientUnits="userSpaceOnUse"><stop stop-color="#DCDCDC"/><stop offset=".069" stop-color="#737475"/><stop offset=".159" stop-color="#959595"/><stop offset=".239" stop-color="#7C7E7F"/><stop offset=".284" stop-color="#A7A9AB"/><stop offset=".467" stop-color="#C7C7C7"/><stop offset=".538" stop-color="#706E70"/><stop offset=".611" stop-color="#777578"/><stop offset=".724" stop-color="#777778"/><stop offset=".832" stop-color="#C7C7C9"/><stop offset="1" stop-color="#868686"/></linearGradient><linearGradient id="paint3_linear_768_974" x1="0" y1="122.5" x2="596" y2="122.5" gradientUnits="userSpaceOnUse"><stop stop-color="#DCDCDC"/><stop offset=".069" stop-color="#737475"/><stop offset=".159" stop-color="#959595"/><stop offset=".239" stop-color="#7C7E7F"/><stop offset=".284" stop-color="#A7A9AB"/><stop offset=".467" stop-color="#C7C7C7"/><stop offset=".538" stop-color="#706E70"/><stop offset=".611" stop-color="#777578"/><stop offset=".724" stop-color="#777778"/><stop offset=".832" stop-color="#C7C7C9"/><stop offset="1" stop-color="#868686"/></linearGradient><linearGradient id="paint4_linear_768_974" x1="0" y1="122.5" x2="596" y2="122.5" gradientUnits="userSpaceOnUse"><stop stop-color="#DCDCDC"/><stop offset=".069" stop-color="#737475"/><stop offset=".159" stop-color="#959595"/><stop offset=".239" stop-color="#7C7E7F"/><stop offset=".284" stop-color="#A7A9AB"/><stop offset=".467" stop-color="#C7C7C7"/><stop offset=".538" stop-color="#706E70"/><stop offset=".611" stop-color="#777578"/><stop offset=".724" stop-color="#777778"/><stop offset=".832" stop-color="#C7C7C9"/><stop offset="1" stop-color="#868686"/></linearGradient><linearGradient id="paint5_linear_768_974" x1="0" y1="122.5" x2="596" y2="122.5" gradientUnits="userSpaceOnUse"><stop stop-color="#DCDCDC"/><stop offset=".069" stop-color="#737475"/><stop offset=".159" stop-color="#959595"/><stop offset=".239" stop-color="#7C7E7F"/><stop offset=".284" stop-color="#A7A9AB"/><stop offset=".467" stop-color="#C7C7C7"/><stop offset=".538" stop-color="#706E70"/><stop offset=".611" stop-color="#777578"/><stop offset=".724" stop-color="#777778"/><stop offset=".832" stop-color="#C7C7C9"/><stop offset="1" stop-color="#868686"/></linearGradient><linearGradient id="paint6_linear_768_974" x1="0" y1="122.5" x2="596" y2="122.5" gradientUnits="userSpaceOnUse"><stop stop-color="#DCDCDC"/><stop offset=".069" stop-color="#737475"/><stop offset=".159" stop-color="#959595"/><stop offset=".239" stop-color="#7C7E7F"/><stop offset=".284" stop-color="#A7A9AB"/><stop offset=".467" stop-color="#C7C7C7"/><stop offset=".538" stop-color="#706E70"/><stop offset=".611" stop-color="#777578"/><stop offset=".724" stop-color="#777778"/><stop offset=".832" stop-color="#C7C7C9"/><stop offset="1" stop-color="#868686"/></linearGradient></defs></svg>