<svg width="31" height="47" viewBox="0 0 31 47" fill="none" xmlns="http://www.w3.org/2000/svg"><path fill-rule="evenodd" clip-rule="evenodd" d="M18 1.5C8.887 1.5 1.5 8.887 1.5 18h-1C.5 8.335 8.335.5 18 .5v1zm0 2C9.992 3.5 3.5 9.992 3.5 18h-1C2.5 9.44 9.44 2.5 18 2.5v1zM6 18c0-6.627 5.373-12 12-12v12.5H6V18z" fill="#7D7D7E"/><path d="M5.5 19.5h25V34c0 6.904-5.596 12.5-12.5 12.5S5.5 40.904 5.5 34V19.5zm0-1V18c0-6.736 5.328-12.228 12-12.49V18.5h-12zm25 0h-12V5.51c6.672.262 12 5.754 12 12.49v.5z" stroke="#7D7D7E"/></svg>